# File created by Blade
# Date/Time:  Thu Sep 25 17:33:50 2014
# Frame Rate: 120.000 fps
#------------------------------------------------------
:FULLY-SPECIFIED
:DEGREES
1436
root -7.011425 32.636388 -3.102333 15.426002 2.332734 -0.391002
Spine -5.009651 5.003633 10.477803
Head -20.054614 -1.865446 -2.304745
LeftShoulder -3.915357 17.210702 14.475459
LeftArm 57.464845 40.771611 -52.123163
LeftForeArm 33.129898 0.000000 107.993324
LeftHand -29.465040 0.000000 34.817098
LeftHandThumb1 -26.253704 0.000000 33.147579
RightShoulder -14.453697 9.892461 -26.054821
RightArm 4.434516 -43.495325 85.533440
RightForeArm -22.107479 -0.000000 116.684729
RightHand 3.161435 -0.000000 -36.234827
RightHandThumb1 -24.326973 -0.000000 -32.862282
LeftUpLeg -24.558933 9.865562 0.433110
LeftLeg 36.252249 -0.000000 -0.000000
LeftFoot -27.134798 13.110608 -29.730595
LeftToeBase -4.240911 -0.000000 0.000000
RightUpLeg -22.778310 -7.730646 8.367035
RightLeg 13.716336 -0.000000 -0.000000
RightFoot -12.494134 -4.376699 -3.041248
RightToeBase 1.599147 -0.000000 -0.000000
1437
root -6.996707 32.642391 -3.101288 15.441597 2.330136 -0.273698
Spine -4.955283 5.153868 10.354869
Head -20.154832 -2.064922 -2.402982
LeftShoulder -3.931160 17.258116 14.452654
LeftArm 57.158927 40.765289 -52.259374
LeftForeArm 33.189138 -0.000000 108.071403
LeftHand -29.388950 -0.000000 34.454466
LeftHandThumb1 -26.253704 0.000000 33.147579
RightShoulder -14.489789 9.870029 -26.103532
RightArm 4.469278 -43.611885 85.451313
RightForeArm -22.368626 -0.000000 116.707860
RightHand 2.859041 0.000000 -36.524444
RightHandThumb1 -24.326973 -0.000000 -32.862282
LeftUpLeg -24.650063 9.591584 0.410738
LeftLeg 35.597687 -0.000000 -0.000000
LeftFoot -27.152734 13.119652 -29.687387
LeftToeBase -4.037868 -0.000000 0.000000
RightUpLeg -22.822360 -7.808418 8.247065
RightLeg 13.770079 -0.000000 -0.000000
RightFoot -12.499903 -4.354344 -3.066012
RightToeBase 1.568242 -0.000000 -0.000000
1438
root -6.984504 32.647670 -3.102441 15.464772 2.331078 -0.168697
Spine -4.912994 5.228454 10.252335
Head -20.242894 -2.158720 -2.510382
LeftShoulder -4.022545 17.347725 14.393203
LeftArm 56.962551 40.748370 -52.322312
LeftForeArm 33.335607 -0.000000 108.144066
LeftHand -29.920911 -0.000000 34.827300
LeftHandThumb1 -26.253704 0.000000 33.147579
RightShoulder -14.440084 9.876265 -26.173084
RightArm 4.417688 -43.573334 85.460049
RightForeArm -22.246859 -0.000000 116.720557
RightHand 3.102623 -0.000000 -36.309850
RightHandThumb1 -24.326973 -0.000000 -32.862282
LeftUpLeg -24.750903 9.284769 0.427013
LeftLeg 34.955131 -0.000000 -0.000000
LeftFoot -27.129359 13.070679 -29.628562
LeftToeBase -3.865398 -0.000000 0.000000
RightUpLeg -22.884093 -7.875154 8.143024
RightLeg 13.836806 -0.000000 -0.000000
RightFoot -12.513984 -4.341757 -3.065489
RightToeBase 1.569441 -0.000000 -0.000000
1439
root -6.970970 32.653206 -3.098747 15.462292 2.365901 -0.078685
Spine -4.862858 5.291915 10.178318
Head -20.309501 -2.253438 -2.614165
LeftShoulder -4.122648 17.462714 14.349317
LeftArm 56.770780 40.736324 -52.394384
LeftForeArm 33.234376 -0.000000 108.203192
LeftHand -29.715866 -0.000000 34.683472
LeftHandThumb1 -26.253704 0.000000 33.147579
RightShoulder -14.393504 9.907989 -26.218783
RightArm 4.350211 -43.593687 85.399527
RightForeArm -22.255146 -0.000000 116.766096
RightHand 3.168234 0.000000 -36.160478
RightHandThumb1 -24.326973 -0.000000 -32.862282
LeftUpLeg -24.800030 8.984267 0.456743
LeftLeg 34.306500 -0.000000 -0.000000
LeftFoot -27.038240 12.932886 -29.547896
LeftToeBase -4.033307 -0.000000 0.000000
RightUpLeg -22.900417 -8.000681 8.062197
RightLeg 13.877032 -0.000000 -0.000000
RightFoot -12.541964 -4.286693 -3.055580
RightToeBase 1.560998 -0.000000 -0.000000
1440
root -6.959181 32.657936 -3.095791 15.468322 2.392150 -0.006832
Spine -4.831297 5.394038 10.101839
Head -20.347524 -2.373280 -2.673688
LeftShoulder -4.191716 17.575083 14.313118
LeftArm 56.568332 40.706648 -52.472195
LeftForeArm 33.193788 -0.000000 108.268884
LeftHand -29.537001 -0.000000 34.182746
LeftHandThumb1 -26.253704 0.000000 33.147579
RightShoulder -14.385621 9.914993 -26.243969
RightArm 4.328139 -43.670577 85.318744
RightForeArm -22.568824 -0.000000 116.792869
RightHand 2.950130 -0.000000 -36.198725
RightHandThumb1 -24.326973 -0.000000 -32.862282
LeftUpLeg -24.868032 8.702252 0.511035
LeftLeg 33.707654 -0.000000 -0.000000
LeftFoot -26.964746 12.764084 -29.379208
LeftToeBase -3.906707 -0.000000 0.000000
RightUpLeg -22.921877 -8.054161 7.983617
RightLeg 13.918968 -0.000000 -0.000000
RightFoot -12.551157 -4.304314 -3.075181
RightToeBase 1.584937 -0.000000 -0.000000
1441
root -6.947528 32.662423 -3.093418 15.474249 2.428366 0.051570
Spine -4.805142 5.495931 10.038242
Head -20.394112 -2.517548 -2.739588
LeftShoulder -4.225493 17.607443 14.305940
LeftArm 56.277307 40.733814 -52.662181
LeftForeArm 33.201213 -0.000000 108.328937
LeftHand -29.634166 -0.000000 34.025863
LeftHandThumb1 -26.253704 0.000000 33.147579
RightShoulder -14.394291 9.863069 -26.258846
RightArm 4.370673 -43.683062 85.192559
RightForeArm -22.506068 -0.000000 116.786578
RightHand 3.206531 -0.000000 -36.134264
RightHandThumb1 -24.326973 -0.000000 -32.862282
LeftUpLeg -24.942433 8.437569 0.576092
LeftLeg 33.155027 -0.000000 -0.000000
LeftFoot -26.831136 12.496508 -29.317750
LeftToeBase -4.047579 -0.000000 0.000000
RightUpLeg -22.943110 -8.136921 7.922856
RightLeg 13.948957 -0.000000 -0.000000
RightFoot -12.582089 -4.327652 -2.970073
RightToeBase 1.656170 -0.000000 -0.000000
1442
root -6.936674 32.665404 -3.089198 15.460867 2.468963 0.103536
Spine -4.773533 5.541606 9.986736
Head -20.391443 -2.613557 -2.797397
LeftShoulder -4.288384 17.652553 14.292067
LeftArm 56.024784 40.764826 -52.801405
LeftForeArm 33.110736 -0.000000 108.388781
LeftHand -29.564543 -0.000000 34.202554
LeftHandThumb1 -26.253704 0.000000 33.147579
RightShoulder -14.376351 9.855577 -26.278323
RightArm 4.447694 -43.759213 85.027811
RightForeArm -22.411220 0.000000 116.787122
RightHand 3.347811 -0.000000 -35.920034
RightHandThumb1 -24.326973 -0.000000 -32.862282
LeftUpLeg -24.977695 8.217500 0.634109
LeftLeg 32.615890 -0.000000 -0.000000
LeftFoot -26.621289 12.273446 -29.001816
LeftToeBase -4.132899 -0.000000 0.000000
RightUpLeg -22.937957 -8.210120 7.878517
RightLeg 13.956099 -0.000000 -0.000000
RightFoot -12.609878 -4.318173 -2.802587
RightToeBase 1.710241 -0.000000 -0.000000
1443
root -6.925159 32.669081 -3.084766 15.455888 2.515943 0.151244
Spine -4.765791 5.616966 9.943090
Head -20.362172 -2.732662 -2.877950
LeftShoulder -4.320711 17.720616 14.270905
LeftArm 55.770033 40.767203 -52.976012
LeftForeArm 33.171943 -0.000000 108.437734
LeftHand -29.511754 -0.000000 33.647729
LeftHandThumb1 -26.253704 0.000000 33.147579
RightShoulder -14.406569 9.872386 -26.327288
RightArm 4.439857 -43.823790 84.967126
RightForeArm -22.234534 -0.000000 116.766465
RightHand 3.436666 -0.000000 -35.903486
RightHandThumb1 -24.326973 -0.000000 -32.862282
LeftUpLeg -25.025700 7.955899 0.704866
LeftLeg 32.111111 -0.000000 -0.000000
LeftFoot -26.430187 12.047903 -28.750307
LeftToeBase -3.937419 -0.000000 0.000000
RightUpLeg -22.935142 -8.244623 7.811518
RightLeg 13.983075 -0.000000 -0.000000
RightFoot -12.593906 -4.344334 -2.942608
RightToeBase 1.653605 -0.000000 -0.000000
1444
root -6.912673 32.672316 -3.078444 15.435614 2.573506 0.185759
Spine -4.753320 5.672651 9.923902
Head -20.341242 -2.873045 -2.944969
LeftShoulder -4.375415 17.759411 14.254948
LeftArm 55.564292 40.769040 -53.003989
LeftForeArm 33.066221 0.000000 108.508040
LeftHand -29.624049 -0.000000 33.446951
LeftHandThumb1 -26.253704 0.000000 33.147579
RightShoulder -14.423030 9.861402 -26.368938
RightArm 4.479394 -43.901706 84.870827
RightForeArm -22.175414 -0.000000 116.770337
RightHand 3.156654 -0.000000 -36.005182
RightHandThumb1 -24.326973 -0.000000 -32.862282
LeftUpLeg -25.053469 7.689757 0.792326
LeftLeg 31.653853 -0.000000 -0.000000
LeftFoot -26.107953 11.672134 -28.518257
LeftToeBase -4.278939 -0.000000 0.000000
RightUpLeg -22.909641 -8.259862 7.750695
RightLeg 13.998896 -0.000000 -0.000000
RightFoot -12.587940 -4.383188 -2.939456
RightToeBase 1.605230 -0.000000 -0.000000
